<svg width="143" height="110" viewBox="0 0 143 110" fill="none" xmlns="http://www.w3.org/2000/svg">
<path d="M78.2367 6.32078C58.0183 6.35861 49.4878 20.8252 47.7498 28.0537C30.3956 25.1738 23.0408 38.7771 21.5326 45.9387C19.2826 64.3577 32.9004 71.0748 39.9906 72.1309C40.1435 83.3203 48.1769 90.134 52.1744 92.1422C67.4732 99.4065 78.5518 91.09 82.1787 86.0236C86.4018 90.6431 93.9272 91.1951 97.162 90.8937C104.243 90.1628 109.356 83.8659 111.028 80.8088C125.071 84.0441 133.384 73.5343 135.785 67.8749C140.784 48.7277 126.954 40.8956 119.414 39.3729C122.526 21.3631 109.27 19.7691 102.253 21.2234C94.118 9.43872 82.8525 6.37804 78.2367 6.32078Z" stroke="#FEFEFE" stroke-opacity="0.8"/>
<path d="M58.424 69.8922C58.216 69.8922 58.032 69.8602 57.872 69.7962C57.728 69.7322 57.608 69.6442 57.512 69.5322C57.416 69.4202 57.328 69.2922 57.248 69.1482L54.056 64.3242C53.784 63.8922 53.504 63.5482 53.216 63.2922C52.928 63.0202 52.6 62.8282 52.232 62.7162C51.88 62.6042 51.448 62.5482 50.936 62.5482H48.2C47.928 62.5482 47.712 62.4762 47.552 62.3322C47.408 62.1882 47.336 61.9802 47.336 61.7082C47.336 61.4522 47.408 61.2602 47.552 61.1322C47.712 60.9882 47.928 60.9162 48.2 60.9162H52.376C53.784 60.9162 54.832 60.6362 55.52 60.0762C56.208 59.5002 56.56 58.6522 56.576 57.5322L56.888 57.9402H48.152C47.896 57.9402 47.696 57.8762 47.552 57.7482C47.408 57.6202 47.336 57.4442 47.336 57.2202C47.336 56.9962 47.408 56.8202 47.552 56.6922C47.696 56.5642 47.896 56.5002 48.152 56.5002H56.888L56.528 56.9322C56.4 56.0522 56 55.3882 55.328 54.9402C54.672 54.4762 53.752 54.2442 52.568 54.2442H48.152C47.896 54.2442 47.696 54.1802 47.552 54.0522C47.408 53.9242 47.336 53.7482 47.336 53.5242C47.336 53.3002 47.408 53.1242 47.552 52.9962C47.696 52.8682 47.896 52.8042 48.152 52.8042H60.248C60.504 52.8042 60.704 52.8682 60.848 52.9962C60.992 53.1242 61.064 53.3002 61.064 53.5242C61.064 53.7482 60.992 53.9242 60.848 54.0522C60.704 54.1802 60.504 54.2442 60.248 54.2442H55.904L56.312 53.8122C56.936 54.1162 57.424 54.5322 57.776 55.0602C58.144 55.5722 58.368 56.1722 58.448 56.8602L58.04 56.5002H60.248C60.504 56.5002 60.704 56.5642 60.848 56.6922C60.992 56.8202 61.064 56.9962 61.064 57.2202C61.064 57.4442 60.992 57.6202 60.848 57.7482C60.704 57.8762 60.504 57.9402 60.248 57.9402H58.112L58.496 57.4362C58.544 58.4602 58.344 59.3482 57.896 60.1002C57.464 60.8522 56.816 61.4362 55.952 61.8522C55.104 62.2522 54.064 62.4522 52.832 62.4522V62.2362H53.216C53.824 62.2362 54.368 62.3802 54.848 62.6682C55.344 62.9562 55.824 63.4602 56.288 64.1802L59.12 68.4522C59.264 68.6762 59.328 68.9002 59.312 69.1242C59.296 69.3482 59.208 69.5322 59.048 69.6762C58.904 69.8202 58.696 69.8922 58.424 69.8922ZM70.6741 69.7242C70.3221 69.7242 70.0581 69.6442 69.8821 69.4842C69.7221 69.3082 69.6421 69.0762 69.6421 68.7882C69.6421 68.6122 69.6821 68.4442 69.7621 68.2842C69.8581 68.1082 69.9861 67.9322 70.1461 67.7562L75.5221 61.9962C76.3381 61.1162 76.9221 60.3082 77.2741 59.5722C77.6421 58.8202 77.8261 58.0602 77.8261 57.2922C77.8261 56.3322 77.5301 55.6042 76.9381 55.1082C76.3621 54.5962 75.5141 54.3402 74.3941 54.3402C73.6741 54.3402 72.9941 54.4522 72.3541 54.6762C71.7141 54.9002 71.0981 55.2442 70.5061 55.7082C70.2981 55.8682 70.1061 55.9402 69.9301 55.9242C69.7701 55.9082 69.6261 55.8442 69.4981 55.7322C69.3701 55.6202 69.2821 55.4762 69.2341 55.3002C69.1861 55.1242 69.1861 54.9482 69.2341 54.7722C69.2981 54.5962 69.4261 54.4362 69.6181 54.2922C70.2421 53.7802 70.9941 53.3722 71.8741 53.0682C72.7541 52.7482 73.6501 52.5882 74.5621 52.5882C75.6981 52.5882 76.6581 52.7642 77.4421 53.1162C78.2261 53.4682 78.8181 53.9882 79.2181 54.6762C79.6181 55.3482 79.8181 56.1722 79.8181 57.1482C79.8181 57.8202 79.7061 58.4842 79.4821 59.1402C79.2741 59.7802 78.9461 60.4362 78.4981 61.1082C78.0661 61.7802 77.4981 62.4762 76.7941 63.1962L71.6821 68.5962V68.0442H79.7701C80.0741 68.0442 80.2981 68.1162 80.4421 68.2602C80.6021 68.3882 80.6821 68.5882 80.6821 68.8602C80.6821 69.1482 80.6021 69.3642 80.4421 69.5082C80.2981 69.6522 80.0741 69.7242 79.7701 69.7242H70.6741ZM87.9928 69.9402C87.2728 69.9402 86.5208 69.7962 85.7368 69.5082C84.9528 69.2202 84.2648 68.8042 83.6728 68.2602C83.4968 68.1322 83.3848 67.9802 83.3368 67.8042C83.3048 67.6282 83.3128 67.4602 83.3608 67.3002C83.4088 67.1242 83.4888 66.9802 83.6008 66.8682C83.7288 66.7402 83.8808 66.6762 84.0568 66.6762C84.2328 66.6602 84.4168 66.7242 84.6088 66.8682C85.1528 67.3322 85.7128 67.6682 86.2888 67.8762C86.8648 68.0842 87.4488 68.1882 88.0408 68.1882C89.0808 68.1882 89.9608 67.9322 90.6808 67.4202C91.4168 66.9082 91.9688 66.1322 92.3368 65.0922C92.7208 64.0522 92.9128 62.7642 92.9128 61.2282V58.9962H93.1288C93.0328 59.8922 92.7608 60.6762 92.3128 61.3482C91.8808 62.0202 91.3208 62.5322 90.6328 62.8842C89.9448 63.2362 89.1688 63.4122 88.3047 63.4122C87.3128 63.4122 86.4328 63.1882 85.6648 62.7402C84.8968 62.2922 84.2968 61.6602 83.8648 60.8442C83.4328 60.0282 83.2168 59.1082 83.2168 58.0842C83.2168 57.0122 83.4408 56.0682 83.8888 55.2522C84.3528 54.4202 84.9848 53.7722 85.7848 53.3082C86.6008 52.8282 87.5368 52.5882 88.5928 52.5882C89.9208 52.5882 91.0488 52.9162 91.9768 53.5722C92.9208 54.2122 93.6328 55.1482 94.1128 56.3802C94.5928 57.6122 94.8328 59.1002 94.8328 60.8442C94.8328 62.3162 94.6808 63.6122 94.3768 64.7322C94.0728 65.8522 93.6248 66.8042 93.0328 67.5882C92.4408 68.3562 91.7208 68.9402 90.8728 69.3402C90.0248 69.7402 89.0648 69.9402 87.9928 69.9402ZM88.7128 61.7562C89.4328 61.7562 90.0648 61.5962 90.6088 61.2762C91.1528 60.9562 91.5768 60.5162 91.8808 59.9562C92.1848 59.3802 92.3368 58.7242 92.3368 57.9882C92.3368 57.2522 92.1848 56.6042 91.8808 56.0442C91.5768 55.4842 91.1528 55.0442 90.6088 54.7242C90.0648 54.4042 89.4328 54.2442 88.7128 54.2442C88.0088 54.2442 87.3848 54.4042 86.8408 54.7242C86.3128 55.0442 85.8888 55.4842 85.5688 56.0442C85.2648 56.6042 85.1128 57.2522 85.1128 57.9882C85.1128 58.7242 85.2648 59.3802 85.5688 59.9562C85.8888 60.5162 86.3128 60.9562 86.8408 61.2762C87.3848 61.5962 88.0088 61.7562 88.7128 61.7562ZM102.383 69.9402C101.663 69.9402 100.911 69.7962 100.127 69.5082C99.3434 69.2202 98.6554 68.8042 98.0634 68.2602C97.8874 68.1322 97.7754 67.9802 97.7274 67.8042C97.6954 67.6282 97.7034 67.4602 97.7514 67.3002C97.7994 67.1242 97.8794 66.9802 97.9914 66.8682C98.1194 66.7402 98.2714 66.6762 98.4474 66.6762C98.6234 66.6602 98.8074 66.7242 98.9994 66.8682C99.5434 67.3322 100.103 67.6682 100.679 67.8762C101.255 68.0842 101.839 68.1882 102.431 68.1882C103.471 68.1882 104.351 67.9322 105.071 67.4202C105.807 66.9082 106.359 66.1322 106.727 65.0922C107.111 64.0522 107.303 62.7642 107.303 61.2282V58.9962H107.519C107.423 59.8922 107.151 60.6762 106.703 61.3482C106.271 62.0202 105.711 62.5322 105.023 62.8842C104.335 63.2362 103.559 63.4122 102.695 63.4122C101.703 63.4122 100.823 63.1882 100.055 62.7402C99.2874 62.2922 98.6874 61.6602 98.2554 60.8442C97.8234 60.0282 97.6074 59.1082 97.6074 58.0842C97.6074 57.0122 97.8314 56.0682 98.2794 55.2522C98.7434 54.4202 99.3754 53.7722 100.175 53.3082C100.991 52.8282 101.927 52.5882 102.983 52.5882C104.311 52.5882 105.439 52.9162 106.367 53.5722C107.311 54.2122 108.023 55.1482 108.503 56.3802C108.983 57.6122 109.223 59.1002 109.223 60.8442C109.223 62.3162 109.071 63.6122 108.767 64.7322C108.463 65.8522 108.015 66.8042 107.423 67.5882C106.831 68.3562 106.111 68.9402 105.263 69.3402C104.415 69.7402 103.455 69.9402 102.383 69.9402ZM103.103 61.7562C103.823 61.7562 104.455 61.5962 104.999 61.2762C105.543 60.9562 105.967 60.5162 106.271 59.9562C106.575 59.3802 106.727 58.7242 106.727 57.9882C106.727 57.2522 106.575 56.6042 106.271 56.0442C105.967 55.4842 105.543 55.0442 104.999 54.7242C104.455 54.4042 103.823 54.2442 103.103 54.2442C102.399 54.2442 101.775 54.4042 101.231 54.7242C100.703 55.0442 100.279 55.4842 99.9594 56.0442C99.6554 56.6042 99.5034 57.2522 99.5034 57.9882C99.5034 58.7242 99.6554 59.3802 99.9594 59.9562C100.279 60.5162 100.703 60.9562 101.231 61.2762C101.775 61.5962 102.399 61.7562 103.103 61.7562Z" fill="white"/>
<path d="M67.128 43.8682C66.0827 43.8682 65.1707 43.6336 64.392 43.1642C63.624 42.6842 63.0267 42.0122 62.6 41.1482C62.184 40.2842 61.976 39.2602 61.976 38.0762C61.976 37.1802 62.0933 36.3802 62.328 35.6762C62.5733 34.9616 62.92 34.3589 63.368 33.8682C63.816 33.3669 64.3547 32.9829 64.984 32.7162C65.624 32.4389 66.3387 32.3002 67.128 32.3002C68.1947 32.3002 69.112 32.5349 69.88 33.0042C70.6587 33.4736 71.256 34.1402 71.672 35.0042C72.0987 35.8576 72.312 36.8762 72.312 38.0602C72.312 38.9562 72.1893 39.7616 71.944 40.4762C71.6987 41.1909 71.352 41.7989 70.904 42.3002C70.456 42.8016 69.912 43.1909 69.272 43.4682C68.6427 43.7349 67.928 43.8682 67.128 43.8682ZM67.128 42.7002C67.9387 42.7002 68.6213 42.5189 69.176 42.1562C69.7413 41.7936 70.1733 41.2656 70.472 40.5722C70.7707 39.8789 70.92 39.0469 70.92 38.0762C70.92 36.6149 70.5893 35.4842 69.928 34.6842C69.2773 33.8736 68.344 33.4682 67.128 33.4682C66.3387 33.4682 65.6613 33.6496 65.096 34.0122C64.5413 34.3749 64.1147 34.9029 63.816 35.5962C63.5173 36.2789 63.368 37.1056 63.368 38.0762C63.368 39.5269 63.6987 40.6629 64.36 41.4842C65.0213 42.2949 65.944 42.7002 67.128 42.7002ZM75.1216 43.8362C74.9083 43.8362 74.7483 43.7776 74.6416 43.6602C74.535 43.5429 74.4816 43.3776 74.4816 43.1642V36.4922C74.4816 36.2789 74.535 36.1189 74.6416 36.0122C74.7483 35.8949 74.903 35.8362 75.1056 35.8362C75.3083 35.8362 75.463 35.8949 75.5696 36.0122C75.687 36.1189 75.7456 36.2789 75.7456 36.4922V37.8682L75.5696 37.6762C75.7936 37.0576 76.1563 36.5936 76.6576 36.2842C77.1696 35.9642 77.7563 35.8042 78.4176 35.8042C79.0363 35.8042 79.5483 35.9162 79.9536 36.1402C80.3696 36.3642 80.679 36.7056 80.8816 37.1642C81.0843 37.6122 81.1856 38.1829 81.1856 38.8762V43.1642C81.1856 43.3776 81.127 43.5429 81.0096 43.6602C80.903 43.7776 80.7483 43.8362 80.5456 43.8362C80.3323 43.8362 80.167 43.7776 80.0496 43.6602C79.943 43.5429 79.8896 43.3776 79.8896 43.1642V38.9562C79.8896 38.2309 79.7456 37.7029 79.4576 37.3722C79.1803 37.0309 78.7323 36.8602 78.1136 36.8602C77.399 36.8602 76.8283 37.0842 76.4016 37.5322C75.9856 37.9696 75.7776 38.5562 75.7776 39.2922V43.1642C75.7776 43.6122 75.559 43.8362 75.1216 43.8362ZM85.9434 43.8682C85.1754 43.8682 84.5887 43.6336 84.1834 43.1642C83.778 42.6949 83.5754 42.0229 83.5754 41.1482V32.9882C83.5754 32.7749 83.6287 32.6149 83.7354 32.5082C83.842 32.3909 84.002 32.3322 84.2154 32.3322C84.418 32.3322 84.578 32.3909 84.6954 32.5082C84.8127 32.6149 84.8714 32.7749 84.8714 32.9882V41.0522C84.8714 41.6282 84.9834 42.0602 85.2074 42.3482C85.442 42.6256 85.7834 42.7642 86.2314 42.7642C86.3274 42.7642 86.4127 42.7589 86.4874 42.7482C86.562 42.7376 86.6367 42.7322 86.7114 42.7322C86.8287 42.7216 86.9087 42.7482 86.9514 42.8122C87.0047 42.8762 87.0314 43.0042 87.0314 43.1962C87.0314 43.3882 86.9887 43.5322 86.9034 43.6282C86.818 43.7242 86.6794 43.7882 86.4874 43.8202C86.402 43.8309 86.3114 43.8416 86.2154 43.8522C86.1194 43.8629 86.0287 43.8682 85.9434 43.8682ZM89.8659 46.7162C89.7059 46.7162 89.5779 46.6736 89.4819 46.5882C89.3859 46.5029 89.3272 46.3856 89.3059 46.2362C89.2952 46.0976 89.3219 45.9536 89.3859 45.8042L90.4899 43.3242V43.8842L87.4179 36.7482C87.3539 36.5882 87.3325 36.4389 87.3539 36.3002C87.3752 36.1616 87.4392 36.0496 87.5459 35.9642C87.6525 35.8789 87.8019 35.8362 87.9939 35.8362C88.1645 35.8362 88.2979 35.8736 88.3939 35.9482C88.4899 36.0229 88.5752 36.1562 88.6499 36.3482L91.2739 42.7802H90.8419L93.4979 36.3482C93.5832 36.1562 93.6739 36.0229 93.7699 35.9482C93.8659 35.8736 94.0045 35.8362 94.1859 35.8362C94.3565 35.8362 94.4845 35.8789 94.5699 35.9642C94.6659 36.0496 94.7192 36.1616 94.7299 36.3002C94.7512 36.4282 94.7299 36.5722 94.6659 36.7322L90.5699 46.2042C90.4845 46.3962 90.3885 46.5296 90.2819 46.6042C90.1859 46.6789 90.0472 46.7162 89.8659 46.7162Z" fill="white"/>
<circle opacity="0.7" cx="24" cy="86.7241" r="7.5" stroke="#FEFEFE"/>
<circle opacity="0.7" cx="6" cy="103.724" r="5.5" stroke="#FEFEFE"/>
</svg>
